<?xml version="1.0" standalone="no"?>
<!DOCTYPE svg PUBLIC "-//W3C//DTD SVG 20010904//EN"
 "http://www.w3.org/TR/2001/REC-SVG-20010904/DTD/svg10.dtd">
<svg version="1.0" xmlns="http://www.w3.org/2000/svg"
 width="241.000000pt" height="94.000000pt" viewBox="0 0 241.000000 94.000000"
 preserveAspectRatio="xMidYMid meet">

<g transform="translate(0.000000,94.000000) scale(0.100000,-0.100000)"
fill="#000000" stroke="none">
<path d="M413 808 c42 -165 42 -541 1 -705 l-7 -25 219 4 c216 3 220 3 276 31
71 35 140 109 170 185 32 82 32 242 0 323 -30 76 -90 142 -160 176 -57 28 -59
28 -281 31 l-224 3 6 -23z m444 -25 c88 -57 98 -339 17 -509 -64 -134 -177
-203 -233 -142 -30 31 -33 65 -29 280 4 172 7 199 27 252 25 64 86 132 123
139 30 5 68 -3 95 -20z"/>
<path d="M1160 823 c0 -5 7 -48 15 -98 21 -122 21 -399 1 -534 -9 -58 -16
-106 -16 -108 0 -2 36 -3 80 -3 44 0 80 2 80 4 0 2 -13 32 -30 67 -16 35 -37
91 -46 124 -19 70 -30 301 -17 359 l9 40 54 -85 c85 -133 175 -318 234 -484 6
-15 39 56 129 274 95 230 123 288 128 270 13 -45 9 -343 -6 -444 -8 -55 -15
-106 -15 -112 0 -10 30 -13 116 -13 115 0 116 0 111 23 -41 171 -41 543 -1
703 l6 25 -88 -3 -89 -3 -72 -175 c-39 -96 -81 -197 -92 -225 l-21 -49 -40 54
c-49 68 -177 319 -186 366 l-6 34 -119 0 c-66 0 -119 -3 -119 -7z"/>
<path d="M181 451 c-25 -25 -27 -49 -5 -79 23 -34 83 -27 104 11 13 24 13 30
0 55 -20 36 -70 42 -99 13z"/>
<path d="M2116 448 c-34 -48 -7 -98 51 -98 37 0 56 21 56 62 0 56 -76 81 -107
36z"/>
</g>
</svg>
